Run_30002
nRows=4
nColumns=173

# SIMM Motion File Header:
name Run_30002
datacolumns 173
datarows 4
otherdata 1
range 4.21000000 4.24000000
endheader
time	pelvis_tilt	pelvis_list	pelvis_rotation	pelvis_tx	pelvis_ty	pelvis_tz	hip_flexion_r	hip_adduction_r	hip_rotation_r	knee_angle_r	ankle_angle_r	hip_flexion_l	hip_adduction_l	hip_rotation_l	knee_angle_l	ankle_angle_l	lumbar_extension	lumbar_bending	lumbar_rotation	arm_flex_r	arm_add_r	arm_rot_r	elbow_flex_r	pro_sup_r	arm_flex_l	arm_add_l	arm_rot_l	elbow_flex_l	pro_sup_l	subtalar_angle_r	mtp_angle_r	subtalar_angle_l	mtp_angle_l	wrist_flex_r	wrist_dev_r	wrist_flex_l	wrist_dev_l	LASI_tx	LASI_ty	LASI_tz	RASI_tx	RASI_ty	RASI_tz	LPSI_tx	LPSI_ty	LPSI_tz	RPSI_tx	RPSI_ty	RPSI_tz	RTH1_tx	RTH1_ty	RTH1_tz	RTH2_tx	RTH2_ty	RTH2_tz	RTH3_tx	RTH3_ty	RTH3_tz	LTH1_tx	LTH1_ty	LTH1_tz	LTH2_tx	LTH2_ty	LTH2_tz	LTH3_tx	LTH3_ty	LTH3_tz	RTB1_tx	RTB1_ty	RTB1_tz	RTB2_tx	RTB2_ty	RTB2_tz	RTB3_tx	RTB3_ty	RTB3_tz	RLMAL_tx	RLMAL_ty	RLMAL_tz	RMMAL_tx	RMMAL_ty	RMMAL_tz	LTB1_tx	LTB1_ty	LTB1_tz	LTB2_tx	LTB2_ty	LTB2_tz	LTB3_tx	LTB3_ty	LTB3_tz	RCAL_tx	RCAL_ty	RCAL_tz	RTOE_tx	RTOE_ty	RTOE_tz	RMT5_tx	RMT5_ty	RMT5_tz	LCAL_tx	LCAL_ty	LCAL_tz	LTOE_tx	LTOE_ty	LTOE_tz	LMT5_tx	LMT5_ty	LMT5_tz	LACR_tx	LACR_ty	LACR_tz	RACR_tx	RACR_ty	RACR_tz	CLAV_tx	CLAV_ty	CLAV_tz	C7_tx	C7_ty	C7_tz	LPSH_tx	LPSH_ty	LPSH_tz	RUA1_tx	RUA1_ty	RUA1_tz	RUA2_tx	RUA2_ty	RUA2_tz	RUA3_tx	RUA3_ty	RUA3_tz	RLEL_tx	RLEL_ty	RLEL_tz	RMEL_tx	RMEL_ty	RMEL_tz	LUA1_tx	LUA1_ty	LUA1_tz	LUA2_tx	LUA2_ty	LUA2_tz	LUA3_tx	LUA3_ty	LUA3_tz	LLEL_tx	LLEL_ty	LLEL_tz	LMEL_tx	LMEL_ty	LMEL_tz	RFAsuperior_tx	RFAsuperior_ty	RFAsuperior_tz	RFAradius_tx	RFAradius_ty	RFAradius_tz	RFAulna_tx	RFAulna_ty	RFAulna_tz	LFAsuperior_tx	LFAsuperior_ty	LFAsuperior_tz	LFAradius_tx	LFAradius_ty	LFAradius_tz	LFAulna_tx	LFAulna_ty	LFAulna_tz
      4.21000000	     -3.99039159	     -1.44930286	      0.62986180	      0.90912554	      1.00645315	     -0.34855033	     -1.90998402	     11.20539358	      9.92657956	    -24.32511114	     18.63794086	     40.22251532	      2.85639328	      6.56904617	    -87.79499173	      3.25065397	     -4.47694907	      4.48260503	     11.96842980	    -15.33588906	    -16.85690540	     -5.61575524	    117.24631749	     93.61425923	    -28.15179872	    -19.43448680	     -2.36941952	    121.54220257	     93.41405393	      0.00000000	      0.00000000	      0.00000000	      0.00000000	      0.00000000	      0.00000000	      0.00000000	      0.00000000	      0.91715292	      1.04331494	     -0.46052951	      0.92721619	      1.03869003	     -0.22918508	      0.75117628	      1.08297886	     -0.38892224	      0.75720484	      1.08280732	     -0.30066654	      0.81583560	      0.78476495	     -0.19345579	      0.87550357	      0.70998886	     -0.23660701	      0.79149027	      0.61795207	     -0.23919426	      0.88604418	      0.83424237	     -0.51241315	      1.01293918	      0.78001349	     -0.50893595	      1.01521457	      0.67401966	     -0.49986066	      0.75983127	      0.37321869	     -0.31410169	      0.69809271	      0.33532081	     -0.27556299	      0.65575077	      0.22142120	     -0.33204045	      0.56463423	      0.14196240	     -0.32102874	      0.59010541	      0.16001707	     -0.40206110	      1.02427644	      0.47757123	     -0.47237432	      0.89006737	      0.47292038	     -0.49382561	      0.86992605	      0.36241483	     -0.46569361	      0.49555326	      0.13300626	     -0.38704379	      0.70497712	      0.06265957	     -0.36603379	      0.63474487	      0.05759939	     -0.29303531	      0.69239010	      0.32943874	     -0.41645477	      0.83253188	      0.16026804	     -0.46196533	      0.77532666	      0.19676970	     -0.52288840	      0.86143191	      1.55362266	     -0.49371969	      0.90989690	      1.52175676	     -0.18245476	      0.96212658	      1.46932880	     -0.32575193	      0.84878174	      1.56077698	     -0.33075444	      0.77824379	      1.51840373	     -0.48948041	      0.88633058	      1.37012987	     -0.09126518	      0.80816767	      1.31769005	     -0.08303698	      0.82751649	      1.26274344	     -0.04392289	      0.84836329	      1.20032706	     -0.02423594	      0.79985902	      1.18271916	     -0.09923275	      0.75661826	      1.45129678	     -0.55429047	      0.68739096	      1.38473438	     -0.53625770	      0.68336780	      1.34874148	     -0.60218355	      0.66828452	      1.27776015	     -0.63476159	      0.64818104	      1.25766659	     -0.54711185	      0.90217392	      1.15715441	     -0.06151799	      1.04753862	      1.21780666	     -0.18251668	      1.05696600	      1.15178869	     -0.16747334	      0.73607907	      1.21254510	     -0.61130396	      0.89948925	      1.24363258	     -0.55678259	      0.89447513	      1.17954984	     -0.58111259
      4.22000000	     -4.42572798	     -0.41725400	      0.66710106	      0.91191267	      1.01418420	     -0.34981645	     -4.70246117	      9.50357372	      9.82910168	    -21.24876856	     13.80393791	     40.96853089	      4.23900413	      6.42025495	    -83.30524337	      3.47367206	     -3.52143431	      3.34051511	     12.73830666	    -15.72508049	    -16.97930977	     -4.53516039	    119.47429124	     94.00002443	    -29.53707007	    -18.85297231	     -2.55033627	    122.70613137	     92.24316836	      0.00000000	      0.00000000	      0.00000000	      0.00000000	      0.00000000	      0.00000000	      0.00000000	      0.00000000	      0.91934018	      1.05257532	     -0.46031599	      0.92964091	      1.04468142	     -0.23045202	      0.75478485	      1.09235336	     -0.39013431	      0.76053883	      1.09057019	     -0.30094496	      0.80811795	      0.79270586	     -0.19419137	      0.86456389	      0.71595626	     -0.23768492	      0.77622103	      0.62744183	     -0.23776758	      0.88993599	      0.84461541	     -0.51325251	      1.01673040	      0.79124220	     -0.50769877	      1.01958915	      0.68464897	     -0.49868179	      0.73739571	      0.38262062	     -0.31055105	      0.67501332	      0.34548701	     -0.27212947	      0.63301430	      0.23104944	     -0.32835074	      0.54226826	      0.15066327	     -0.31861689	      0.56852673	      0.16872348	     -0.39907599	      1.03757838	      0.48401296	     -0.47025905	      0.90440464	      0.46806867	     -0.49243424	      0.89324358	      0.35626957	     -0.46382997	      0.47396072	      0.14713329	     -0.38453662	      0.67416363	      0.06212714	     -0.36491030	      0.60692693	      0.05859058	     -0.29260056	      0.71863187	      0.30861689	     -0.41528573	      0.87320908	      0.15203980	     -0.45950925	      0.81343458	      0.18324366	     -0.52106026	      0.85825707	      1.56138946	     -0.49317437	      0.91140315	      1.53154543	     -0.18351149	      0.96252074	      1.47839919	     -0.32700942	      0.84889708	      1.56865609	     -0.33102533	      0.77534424	      1.52639965	     -0.48707741	      0.89086120	      1.38025193	     -0.09175871	      0.81357079	      1.32789024	     -0.08105020	      0.83402491	      1.27263605	     -0.04315153	      0.85533311	      1.20999989	     -0.02420549	      0.80406647	      1.19282530	     -0.09789775	      0.75178988	      1.46033148	     -0.55108568	      0.68288469	      1.39453503	     -0.53057414	      0.67622125	      1.35837915	     -0.59607171	      0.65967434	      1.28713066	     -0.62805554	      0.64221970	      1.26820863	     -0.53989577	      0.90860907	      1.16920730	     -0.06456341	      1.04704060	      1.23645747	     -0.19005246	      1.05902396	      1.17064250	     -0.17614971	      0.72837224	      1.22267725	     -0.60493682	      0.89278538	      1.25623467	     -0.55527219	      0.88781438	      1.19144754	     -0.57707921
      4.23000000	     -4.81075107	      0.52975169	      0.87063092	      0.91473017	      1.02209011	     -0.35121243	     -7.28888973	      7.88529296	      9.14886274	    -18.30291499	      8.08315984	     41.35302966	      5.59339015	      6.46310669	    -78.30595591	      3.54713529	     -2.63866963	      2.29448931	     13.18518167	    -16.12945432	    -17.00942794	     -3.52672027	    121.56916463	     94.89893082	    -31.01512506	    -18.08754381	     -2.96587115	    123.81236697	     91.29955587	      0.00000000	      0.00000000	      0.00000000	      0.00000000	      0.00000000	      0.00000000	      0.00000000	      0.00000000	      0.92136240	      1.06209735	     -0.46067705	      0.93228584	      1.05120198	     -0.23185778	      0.75846922	      1.10180408	     -0.39107070	      0.76388229	      1.09862852	     -0.30105809	      0.80145872	      0.80148723	     -0.19433356	      0.85479278	      0.72270761	     -0.23754491	      0.76253779	      0.63777687	     -0.23552057	      0.89252391	      0.85475179	     -0.51380802	      1.01921635	      0.80128904	     -0.50672918	      1.02228855	      0.69421493	     -0.49746649	      0.71704750	      0.39307996	     -0.30612400	      0.65392076	      0.35679404	     -0.26779586	      0.61272001	      0.24151029	     -0.32377777	      0.52205521	      0.16010265	     -0.31556233	      0.54986803	      0.17782944	     -0.39502403	      1.04946108	      0.48967498	     -0.46803032	      0.91842849	      0.46216087	     -0.49099488	      0.91659768	      0.34981560	     -0.46156150	      0.45551981	      0.16237370	     -0.38192710	      0.64448255	      0.06175119	     -0.36361959	      0.57958223	      0.05950752	     -0.29229242	      0.74628950	      0.28747007	     -0.41399357	      0.91430898	      0.14464767	     -0.45541747	      0.85272019	      0.17005350	     -0.51806695	      0.85578900	      1.56918114	     -0.49274894	      0.91280801	      1.54129472	     -0.18447579	      0.96302416	      1.48756374	     -0.32805619	      0.84917973	      1.57667874	     -0.33117372	      0.77304174	      1.53455505	     -0.48480883	      0.89442819	      1.39052387	     -0.09208744	      0.81764098	      1.33794180	     -0.08045518	      0.83892929	      1.28283362	     -0.04287557	      0.86114556	      1.21987682	     -0.02422957	      0.80721809	      1.20271469	     -0.09659231	      0.74768971	      1.46931297	     -0.54744335	      0.67927029	      1.40416929	     -0.52413425	      0.66977752	      1.36838534	     -0.58945860	      0.65172363	      1.29661249	     -0.62068952	      0.63687505	      1.27885971	     -0.53206863	      0.91385289	      1.18124826	     -0.06733954	      1.04545444	      1.25432022	     -0.19681797	      1.05981157	      1.18896019	     -0.18374433	      0.72133922	      1.23273750	     -0.59835682	      0.88671692	      1.26840489	     -0.55348545	      0.88174292	      1.20306178	     -0.57292300
      4.24000000	     -5.06287058	      1.33559666	      1.23720674	      0.91745632	      1.03006125	     -0.35244145	     -9.76280000	      6.49570366	      8.01471186	    -15.52969011	      1.66015753	     41.28145751	      6.82126439	      6.73681268	    -72.82815003	      3.43564505	     -1.95805945	      1.36676312	     13.28880437	    -16.46561038	    -16.93667263	     -2.54108596	    123.47022108	     96.04805366	    -32.54736954	    -17.16904419	     -3.60931880	    124.88785798	     90.71316578	      0.00000000	      0.00000000	      0.00000000	      0.00000000	      0.00000000	      0.00000000	      0.00000000	      0.00000000	      0.92325273	      1.07155046	     -0.46142270	      0.93506261	      1.05821628	     -0.23323363	      0.76173909	      1.11089654	     -0.39115932	      0.76705681	      1.10667951	     -0.30092504	      0.79600825	      0.81071541	     -0.19367036	      0.84621352	      0.72985235	     -0.23599689	      0.75031176	      0.64863456	     -0.23299196	      0.89407138	      0.86445071	     -0.51418801	      1.02049296	      0.81007407	     -0.50593704	      1.02332200	      0.70250265	     -0.49608623	      0.69890719	      0.40402521	     -0.30060266	      0.63462012	      0.36885545	     -0.26279674	      0.59496371	      0.25218608	     -0.31859284	      0.50403400	      0.16996044	     -0.31196336	      0.53437448	      0.18675335	     -0.39015822	      1.05974619	      0.49447421	     -0.46606954	      0.93189046	      0.45529407	     -0.48952439	      0.93977611	      0.34312019	     -0.45896799	      0.44048883	      0.17846853	     -0.37912449	      0.61599943	      0.06184958	     -0.36264213	      0.55262543	      0.06098907	     -0.29185224	      0.77522262	      0.26623918	     -0.41243735	      0.95555386	      0.13823142	     -0.45012577	      0.89277321	      0.15737981	     -0.51402668	      0.85401450	      1.57684569	     -0.49243174	      0.91409633	      1.55070876	     -0.18543415	      0.96362964	      1.49652499	     -0.32889933	      0.84957611	      1.58459684	     -0.33129653	      0.77133914	      1.54274568	     -0.48274068	      0.89698216	      1.40068731	     -0.09224107	      0.82051027	      1.34754730	     -0.08101180	      0.84240004	      1.29298560	     -0.04282393	      0.86584012	      1.22965811	     -0.02432622	      0.80956474	      1.21225672	     -0.09552683	      0.74433895	      1.47821100	     -0.54351644	      0.67659017	      1.41356001	     -0.51731914	      0.66415028	      1.37856227	     -0.58258135	      0.64452883	      1.30601491	     -0.61278372	      0.63220900	      1.28941061	     -0.52374659	      0.91800443	      1.19286781	     -0.06979137	      1.04308354	      1.27107104	     -0.20272609	      1.05962097	      1.20627090	     -0.19044383	      0.71502820	      1.24260975	     -0.59162667	      0.88134181	      1.27995024	     -0.55133429	      0.87630425	      1.21414621	     -0.56877133
